<svg width="512" height="512" viewBox="0 0 512 512" fill="none" xmlns="http://www.w3.org/2000/svg">
<rect width="512" height="512" fill="#1E1E1E"/>
<path d="M434.201 346.798C413.806 386.825 380.529 418.821 339.732 437.629C298.935 456.436 252.993 460.961 209.311 450.474C165.628 439.987 126.749 415.098 98.9366 379.819C71.1246 344.539 56 300.924 56 256C56 211.076 71.1246 167.461 98.9366 132.181C126.749 96.9018 165.628 72.0133 209.311 61.526C252.993 51.0388 298.935 55.5636 339.732 74.3714C380.529 93.1791 413.806 125.175 434.201 165.202L425.291 169.742C405.916 131.716 374.303 101.32 335.545 83.4528C296.788 65.5854 253.144 61.2868 211.645 71.2497C170.147 81.2126 133.211 104.857 106.79 138.372C80.3683 171.888 66 213.322 66 256C66 298.678 80.3683 340.112 106.79 373.628C133.211 407.143 170.147 430.787 211.645 440.75C253.144 450.713 296.788 446.415 335.545 428.547C374.303 410.68 405.916 380.284 425.291 342.258L434.201 346.798Z" stroke="#E1E1E1" stroke-width="45" stroke-linejoin="round"/>
<path d="M306 247.34C312.667 251.189 312.667 260.811 306 264.66L238.5 303.631C231.833 307.48 223.5 302.669 223.5 294.971V217.029C223.5 209.331 231.833 204.52 238.5 208.369L306 247.34Z" fill="#D9D9D9"/>
</svg>
